<mxfile host="app.diagrams.net" modified="2023-10-22T08:11:53.329Z" agent="Mozilla/5.0 (Windows NT 10.0; Win64; x64) AppleWebKit/537.36 (KHTML, like Gecko) Chrome/118.0.0.0 Safari/537.36" version="22.0.6" etag="gWhKM9hC39SlrPl-VukB" type="github">
  <diagram name="Trang-1" id="MpsXlG76pBL78PVHdDQa">
    <mxGraphModel>
      <root>
        <mxCell id="0" />
        <mxCell id="1" parent="0" />
      </root>
    </mxGraphModel>
  </diagram>
</mxfile>
